<svg width="40" height="45" viewBox="0 0 40 45" fill="none" xmlns="http://www.w3.org/2000/svg">
<path d="M19.2869 0.511199C9.32614 0.81793 1.05118 7.63818 0.0951938 16.3439C-0.100116 18.0851 0.0129584 19.7721 0.36246 21.3869C0.36246 21.3869 0.393298 21.5764 0.496092 21.9372C0.804476 23.1461 1.26705 24.3189 1.8427 25.4195C3.84719 29.5875 8.48322 36.5611 18.886 44.1482C19.5233 44.6173 20.4588 44.6173 21.1064 44.1482C31.5092 36.5701 36.1452 29.5965 38.16 25.4105C38.7459 24.3099 39.1982 23.1461 39.5066 21.9282C39.5991 21.5764 39.6402 21.3779 39.6402 21.3779C39.8766 20.2953 40 19.1857 40 18.049C40 8.14338 30.656 0.159361 19.2869 0.511199ZM19.9962 26.7818C14.6303 26.7818 10.2821 22.9657 10.2821 18.2565C10.2821 13.5473 14.6303 9.73116 19.9962 9.73116C25.3621 9.73116 29.7103 13.5473 29.7103 18.2565C29.7103 22.9657 25.3621 26.7818 19.9962 26.7818Z" fill="#FF981F"/>
</svg>
