<svg width="40" height="41" viewBox="0 0 40 41" fill="none" xmlns="http://www.w3.org/2000/svg">
<path d="M19.9219 0.5C8.93672 0.5 0 9.43672 0 20.4219C0 31.407 8.93672 40.5 19.9219 40.5C30.907 40.5 40 31.407 40 20.4219C40 9.43672 30.907 0.5 19.9219 0.5ZM28.2812 26.2812C26.6974 26.2812 25.3006 25.4874 24.4518 24.2816C23.3773 25.4977 21.8245 26.2812 20.0781 26.2812C16.8474 26.2812 14.2188 23.6526 14.2188 20.4219C14.2188 17.1912 16.8474 14.5625 20.0781 14.5625C21.4022 14.5625 22.6114 15.0207 23.5938 15.7643V15.7344C23.5938 15.0866 24.1179 14.5625 24.7656 14.5625C25.4134 14.5625 25.9375 15.0866 25.9375 15.7344C25.9375 18.3406 25.9375 18.9863 25.9375 21.5938C25.9375 22.8858 26.9892 23.9375 28.2812 23.9375C29.5733 23.9375 30.625 22.8858 30.625 21.5938C30.625 13.7507 25.435 9.875 20.0781 9.875C14.2623 9.875 9.53125 14.606 9.53125 20.4219C9.53125 26.2377 14.2623 30.9688 20.0781 30.9688C22.4219 30.9688 24.6386 30.218 26.4891 28.7966C27.7252 27.853 29.1407 29.7158 27.9173 30.6552C25.6526 32.3935 22.9426 33.3125 20.0781 33.3125C12.9702 33.3125 7.1875 27.5298 7.1875 20.4219C7.1875 13.314 12.9702 7.53125 20.0781 7.53125C26.5545 7.53125 32.9688 12.3074 32.9688 21.5938C32.9688 24.179 30.8665 26.2812 28.2812 26.2812Z" fill="#FF981F"/>
</svg>
