<svg width="40" height="41" viewBox="0 0 40 41" fill="none" xmlns="http://www.w3.org/2000/svg">
<path d="M38.9511 29.856L33.3572 24.2738C31.3594 22.2802 27.9631 23.0778 27.164 25.6694C26.5647 27.4637 24.5669 28.4605 22.7688 28.0617C18.7732 27.0649 13.3791 21.8815 12.3802 17.6949C11.7809 15.9006 12.9796 13.907 14.7776 13.309C17.3748 12.5115 18.1739 9.12238 16.1761 7.12877L10.5822 1.54665C8.98396 0.151118 6.58659 0.151118 5.18812 1.54665L1.39229 5.33451C-2.40355 9.32174 1.79185 19.8879 11.1815 29.2579C20.5713 38.6279 31.1596 43.0139 35.1553 39.0266L38.9511 35.2387C40.3496 33.6438 40.3496 31.2515 38.9511 29.856Z" fill="#FF981F"/>
</svg>
