<?xml version="1.0" encoding="utf-8"?><svg viewBox="0 0 40 45" xmlns="http://www.w3.org/2000/svg" xmlns:xlink="http://www.w3.org/1999/xlink"><style>:root>svg{display:none}:root>svg:target{display:block}</style><svg viewBox="0 0 22 22" id="cloze" xmlns="http://www.w3.org/2000/svg"><path d="M15.244 11.767L8.39 18.672a1.12 1.12 0 11-1.59-1.579l6.064-6.11-6.11-6.064a1.12 1.12 0 011.58-1.59l6.904 6.854a1.117 1.117 0 01.006 1.584"/></svg><svg viewBox="0 0 40 45" id="location" xmlns="http://www.w3.org/2000/svg"><path d="M19.287.511C9.327.818 1.05 7.638.095 16.344a15.536 15.536 0 00.267 5.043s.031.19.134.55a16.17 16.17 0 001.347 3.482c2.004 4.168 6.64 11.142 17.043 18.73.637.468 1.573.468 2.22 0C31.51 36.57 36.146 29.595 38.16 25.41a15.487 15.487 0 001.347-3.482c.092-.352.133-.55.133-.55a15.56 15.56 0 00.36-3.329C40 8.143 30.656.159 19.287.511zm.71 26.27c-5.367 0-9.715-3.815-9.715-8.524 0-4.71 4.348-8.526 9.714-8.526 5.366 0 9.714 3.816 9.714 8.525 0 4.71-4.348 8.526-9.714 8.526z"/></svg><svg viewBox="0 0 40 41" id="mail" xmlns="http://www.w3.org/2000/svg"><path d="M19.922.5C8.937.5 0 9.437 0 20.422 0 31.407 8.937 40.5 19.922 40.5 30.907 40.5 40 31.407 40 20.422S30.907.5 19.922.5zm8.36 25.781a4.678 4.678 0 01-3.83-2c-1.075 1.217-2.628 2-4.374 2a5.866 5.866 0 01-5.86-5.86c0-3.23 2.63-5.858 5.86-5.858 1.324 0 2.533.458 3.516 1.201v-.03a1.171 1.171 0 112.343 0v5.86a2.347 2.347 0 002.344 2.343 2.347 2.347 0 002.344-2.343c0-7.843-5.19-11.719-10.547-11.719-5.816 0-10.547 4.731-10.547 10.547 0 5.816 4.731 10.547 10.547 10.547 2.344 0 4.56-.751 6.411-2.172 1.236-.944 2.652.919 1.428 1.858a12.765 12.765 0 01-7.839 2.657c-7.108 0-12.89-5.782-12.89-12.89 0-7.108 5.782-12.89 12.89-12.89 6.477 0 12.89 4.775 12.89 14.062a4.692 4.692 0 01-4.687 4.687z"/></svg><svg viewBox="0 0 14 24" id="next" xmlns="http://www.w3.org/2000/svg"><path d="M2 22l10-10L2 2"/></svg><svg viewBox="0 0 40 41" id="phone" xmlns="http://www.w3.org/2000/svg"><path d="M38.951 29.856l-5.594-5.582c-1.998-1.994-5.394-1.196-6.193 1.395-.6 1.795-2.597 2.791-4.395 2.393-3.996-.997-9.39-6.18-10.389-10.367-.6-1.794.6-3.788 2.398-4.386 2.597-.797 3.396-4.187 1.398-6.18l-5.594-5.582C8.984.15 6.587.15 5.188 1.547L1.392 5.335c-3.796 3.987.4 14.553 9.79 23.923 9.39 9.37 19.978 13.756 23.973 9.769l3.796-3.788c1.399-1.595 1.399-3.987 0-5.383z"/></svg><svg viewBox="0 0 14 24" id="prev" xmlns="http://www.w3.org/2000/svg"><path d="M12.001 22l-10-10 10-10"/></svg><svg viewBox="0 0 40 40" id="telegram" xmlns="http://www.w3.org/2000/svg"><g clip-path="url(#ga)"><circle cx="20" cy="20" r="17"/><path d="M20 40c11.048 0 20-8.952 20-20S31.048 0 20 0 0 8.952 0 20s8.952 20 20 20zM9.152 19.567l19.283-7.435c.895-.324 1.677.218 1.387 1.571l.001-.001L26.54 29.17c-.243 1.097-.895 1.363-1.807.847l-5-3.685-2.411 2.323c-.267.267-.492.492-1.009.492l.355-5.089 9.267-8.371c.403-.355-.09-.555-.622-.202l-11.451 7.21-4.937-1.54c-1.072-.34-1.095-1.072.227-1.588z"/></g><defs><clipPath id="ga"><path d="M0 0h40v40H0z"/></clipPath></defs></svg><svg viewBox="0 0 40 40" id="whatsapp" xmlns="http://www.w3.org/2000/svg"><g clip-path="url(#ha)"><path d="M20.005 0h-.01C8.967 0 0 8.97 0 20c0 4.375 1.41 8.43 3.808 11.723l-2.493 7.43 7.688-2.458A19.827 19.827 0 0020.005 40C31.032 40 40 31.027 40 20S31.032 0 20.005 0z"/><path d="M31.642 28.242c-.482 1.363-2.397 2.493-3.925 2.823-1.045.223-2.41.4-7.005-1.505-5.877-2.435-9.662-8.407-9.957-8.795-.283-.387-2.375-3.163-2.375-6.033 0-2.87 1.457-4.267 2.045-4.867.482-.492 1.28-.717 2.045-.717.247 0 .47.012.67.022.587.025.882.06 1.27.988.482 1.162 1.657 4.032 1.797 4.327.143.295.285.695.085 1.083-.187.4-.352.577-.647.917-.295.34-.575.6-.87.965-.27.317-.575.658-.235 1.245.34.575 1.515 2.492 3.245 4.032 2.232 1.988 4.042 2.623 4.69 2.893.482.2 1.057.152 1.41-.223.447-.482 1-1.282 1.562-2.07.4-.565.905-.635 1.435-.435.54.188 3.398 1.6 3.985 1.893.588.295.975.435 1.118.683.14.247.14 1.41-.343 2.774z"/></g><defs><clipPath id="ha"><path d="M0 0h40v40H0z"/></clipPath></defs></svg></svg>